<svg width="416" height="817" viewBox="0 0 416 817" fill="none" xmlns="http://www.w3.org/2000/svg">
<path fill-rule="evenodd" clip-rule="evenodd" d="M214.304 448.401C202.595 451.656 192.038 458.933 182.248 470.039C172.459 481.337 167.66 493.783 167.66 507.187C167.66 515.613 170.539 525.187 176.106 535.336C181.673 545.676 190.118 553.144 201.06 557.931C204.707 558.697 206.434 560.612 206.434 563.293C206.434 564.25 205.091 565.208 201.827 565.974C184.36 561.569 169.964 552.187 158.83 538.208C147.697 524.038 141.939 507.953 141.555 489.571C142.131 469.848 148.081 451.465 159.406 434.614C170.923 417.572 185.704 405.508 203.747 398.423L190.502 330.446C160.942 354.956 136.948 380.424 118.329 407.232C99.7093 433.848 90.1117 462.763 89.3439 493.975C89.7278 507.953 92.6071 521.549 97.9817 534.57C103.356 547.782 111.418 559.655 122.168 570.569C143.858 592.207 172.075 603.505 206.434 604.654C218.143 603.888 230.62 601.782 244.057 598.335L214.304 448.401ZM228.125 446.486L258.069 593.739C287.63 581.867 302.41 556.016 302.41 516.57C300.683 503.358 296.843 491.486 290.317 480.954C283.983 470.231 275.537 461.805 264.788 455.678C254.038 449.55 241.945 446.486 228.125 446.486ZM188.775 247.341C195.109 243.511 202.403 236.809 210.273 227.426C218.143 218.235 225.821 207.32 233.116 195.065C240.602 182.619 246.552 169.98 250.967 157.151C255.382 144.513 257.493 132.449 257.493 121.343C257.493 116.556 257.11 111.769 256.15 107.556C255.382 100.662 253.27 95.3009 249.623 91.6627C245.976 88.2159 241.37 86.301 235.611 86.301C224.094 86.301 213.728 93.386 204.515 107.556C197.413 119.811 191.462 134.364 187.239 150.832C182.824 167.491 180.329 183.959 179.945 200.618C180.905 219.575 183.976 235.086 188.775 247.341ZM176.682 258.447C168.044 227.426 163.245 195.831 162.285 163.661C162.477 142.981 164.589 123.641 168.62 105.641C172.459 87.6414 178.025 72.1311 185.32 58.727C192.422 45.323 200.676 35.1743 209.889 28.2808C218.143 22.1532 224.094 18.8979 227.357 18.8979C229.852 18.8979 231.964 19.8554 233.883 21.5788C235.803 23.3021 238.298 26.1744 241.37 30.0041C264.212 62.3653 275.729 101.428 275.729 147.002C275.729 168.64 272.85 189.704 267.091 210.767C261.524 231.639 253.27 251.554 242.329 270.128C231.196 288.893 218.143 305.17 202.979 319.148L218.527 394.594C226.973 393.636 232.732 392.87 235.995 392.87C250.583 392.87 263.636 395.934 275.729 402.062C287.822 408.189 298.187 416.423 306.633 426.955C315.079 437.295 321.605 449.167 326.212 462.571C330.627 475.975 333.122 489.954 333.122 504.507C333.122 527.102 327.172 547.782 315.271 566.357C303.37 584.931 285.518 598.526 261.524 607.335C263.06 616.717 265.747 630.313 269.778 647.738C273.617 665.355 276.497 679.333 278.416 689.674C280.336 700.014 281.103 709.971 281.103 719.737C281.103 734.864 277.456 748.268 270.162 760.14C262.676 772.013 252.695 781.204 240.026 787.714C227.549 794.225 213.728 797.48 198.756 797.48C177.642 797.48 159.214 791.544 143.474 779.864C127.734 767.991 119.288 752.098 118.521 731.801C119.096 722.801 121.208 714.375 125.047 706.333C128.886 698.29 134.069 691.78 140.787 686.801C147.313 681.631 155.183 678.95 164.205 678.376C171.691 678.376 178.793 680.482 185.512 684.503C192.038 688.716 197.413 694.269 201.444 701.354C205.283 708.439 207.394 716.29 207.394 724.716C207.394 736.013 203.555 745.588 195.877 753.438C188.199 761.289 178.409 765.311 166.7 765.311H162.285C169.772 776.8 182.056 782.736 199.14 782.736C207.778 782.736 216.608 780.821 225.438 777.374C234.459 773.736 241.945 768.949 248.28 762.821C254.614 756.694 258.837 750.183 260.565 743.29C263.828 735.439 265.363 724.524 265.363 710.929C265.363 701.737 264.404 692.546 262.676 683.355C260.949 674.355 258.261 662.291 254.614 647.355C250.967 632.611 248.28 621.122 246.744 613.271C235.227 616.143 223.326 617.675 210.849 617.675C189.926 617.675 170.155 613.462 151.536 604.845C132.917 596.228 116.601 584.356 102.397 569.037C88.3841 553.719 77.4429 536.485 69.5729 516.953C61.8948 497.613 57.8638 477.316 57.6719 456.252C58.4397 436.721 62.0868 417.955 68.997 400.338C75.9073 382.53 84.737 365.679 95.6783 349.977C106.62 334.275 117.945 319.914 129.654 307.084C141.555 294.446 157.103 278.17 176.682 258.447Z" fill="#131516" stroke="#131516" stroke-width="0.575156"/>
</svg>
